<?xml version="1.0" encoding="UTF-8"?><svg id="_레이어_1" xmlns="http://www.w3.org/2000/svg" viewBox="0 0 114 195"><path d="m47.94,38.9c11.23,0,21.22,4.78,28.5,13.1l37.02-11.65v102.75c0,33.7-18.51,51.38-53.87,51.38-29.74,0-48.88-14.35-50.96-38.48h26c1.87,11.65,10.19,17.26,25.58,17.26,18.3,0,27.25-8.94,27.25-27.25v-13.52c-7.28,10.19-17.47,18.93-34.74,18.93-25.79,0-46.8-25.79-46.8-57.41,0-35.36,21.42-55.12,42.02-55.12Zm4.78,110.45c17.68,0,27.04-9.36,34.74-20.59h2.08v17.26c0,19.55-9.78,29.33-29.33,29.33-15.6,0-24.75-5.82-27.25-17.26H11.12c2.91,21.63,20.8,34.32,48.46,34.32,34.11,0,51.79-16.85,51.79-49.3V43.26l-33.28,10.4c7.7,9.57,12.27,22.88,12.27,38.27,0,21.63-14.35,38.69-32.45,38.69s-27.66-16.22-27.66-30.78c0-22.26,14.35-37.86,44.1-47.22-7.07-7.28-16.22-11.65-26.42-11.65-19.76,0-39.94,18.51-39.94,53.04,0,30.58,19.97,55.33,44.72,55.33Zm5.2-20.8c16.85,0,30.37-16.22,30.37-36.61,0-15.18-4.78-28.5-12.48-37.65l-.42.21c-29.12,9.15-43.06,23.92-43.06,45.34,0,14.14,8.94,28.7,25.58,28.7Z" style="fill:#b3b3b3;"/></svg>