<?xml version="1.0" encoding="UTF-8"?><svg id="_레이어_1" xmlns="http://www.w3.org/2000/svg" viewBox="0 0 120 195"><path d="m46.46,40.14c4.99,0,9.15.83,13.1,2.5,3.74-1.66,7.9-2.5,12.9-2.5,21.01,0,39.94,21.63,39.94,56.99v8.53H32.53c.83,14.56,10.61,26.83,28.5,26.83,14.35,0,21.42-6.03,24.75-16.43h25.58c-4.16,21.63-22.67,38.06-50.34,38.06-34.53,0-54.5-24.13-54.5-56.99,0-35.36,18.93-56.99,39.94-56.99Zm13.1,54.5c-9.98,0-20.59-7.07-20.59-21.63,0-8.94,5.41-22.67,17.89-29.12-3.12-1.04-6.66-1.66-10.4-1.66-19.97,0-37.86,20.38-37.86,54.91,0,32.03,18.93,54.91,52.42,54.91,25.79,0,42.85-14.35,47.84-33.9h-21.42c-3.95,10.19-11.86,16.43-26.42,16.43-19.97,0-30.58-14.77-30.58-30.99h79.87v-6.45c0-34.53-17.89-54.91-37.86-54.91-3.74,0-7.28.62-10.4,1.66,12.48,6.45,17.89,20.18,17.89,29.12,0,14.35-10.4,21.63-20.38,21.63Zm0-2.08c9.15,0,18.3-6.45,18.3-19.55,0-8.94-5.62-22.46-18.3-28.08-12.9,5.62-18.51,19.14-18.51,28.08,0,13.31,9.36,19.55,18.51,19.55Z" style="fill:#b3b3b3;"/></svg>