<?xml version="1.0" encoding="UTF-8"?><svg id="_레이어_1" xmlns="http://www.w3.org/2000/svg" viewBox="0 0 120 195"><path d="m9.05,41.81h23.92c7.49,0,13.94,1.04,19.34,2.7,5.41-3.74,11.65-5.62,18.72-5.62,19.97,0,33.9,16.43,33.9,40.56v71.76h-25.79v-64.27c0-15.81-6.24-33.28-26.42-40.14-11.44,8.74-17.89,26.42-17.89,51.17v53.25H9.05V41.81Zm23.71,107.33v-51.17c0-24.54,6.24-42.64,17.68-52-4.99-1.25-10.82-2.08-17.47-2.08H11.13v105.25h21.63Zm48.46-62.19v62.19h21.63v-69.68c0-22.88-13.1-38.48-31.82-38.48-6.03,0-11.44,1.46-16.22,4.37,19.97,7.7,26.42,25.79,26.42,41.6Z" style="fill:#b3b3b3;"/></svg>