<?xml version="1.0" encoding="UTF-8"?><svg id="_레이어_1" xmlns="http://www.w3.org/2000/svg" viewBox="0 0 100 195"><path d="m47.27,84.45c20.18-1.46,26.62-4.37,26.62-11.02,0-8.11-7.49-13.1-20.59-13.1s-21.22,6.24-21.84,16.85H6.51c.83-23.71,19.14-38.27,47.84-38.27s44.72,14.35,44.72,42.85v70.72l-33.28-7.49c-6.03,5.2-14.35,8.53-23.5,8.53-23.71,0-39.31-13.52-39.31-34.32s14.56-32.24,44.3-34.74Zm-4.99,66.98c8.11,0,15.39-2.7,21.01-7.07-26.42-6.45-36.61-13.52-36.61-25.58,0-10.82,9.57-18.1,22.88-18.1,16.02,0,26.42,8.94,26.42,22.67,0,7.7-3.12,14.56-8.32,19.76l29.33,6.86v-68.22c0-27.25-13.94-40.77-42.64-40.77-26.83,0-43.89,12.9-45.76,34.11h21.01c1.66-10.61,10.4-16.85,23.71-16.85,14.14,0,22.67,5.62,22.67,15.18,0,8.11-7.28,11.44-28.7,13.1-28.7,2.29-42.22,12.69-42.22,32.66s14.56,32.24,37.23,32.24Zm22.88-8.74c5.41-4.99,8.74-11.86,8.74-19.34,0-12.48-9.36-20.59-24.34-20.59-12.27,0-20.8,6.66-20.8,16.02,0,11.02,9.78,17.68,36.4,23.92Z" style="fill:#b3b3b3;"/></svg>